<svg width="21" height="35" viewBox="0 0 21 35" version="1.1" xmlns="http://www.w3.org/2000/svg" xmlns:xlink="http://www.w3.org/1999/xlink">
<title>Group</title>
<desc>Created using Figma</desc>
<g id="Canvas" transform="translate(498 155)">
<g id="Group">
<g id="Vector">
<use xlink:href="#path0_fill" transform="translate(-498 -142.049)" fill="#937C48"/>
</g>
<g id="Vector">
<use xlink:href="#path1_fill" transform="translate(-487.5 -155)" fill="#937C48"/>
</g>
<g id="Vector">
<use xlink:href="#path2_fill" transform="translate(-487.5 -142.049)" fill="#51432B"/>
</g>
<g id="Vector">
<use xlink:href="#path3_fill" transform="translate(-487.5 -135.082)" fill="#937C48"/>
</g>
<g id="Vector">
<use xlink:href="#path4_fill" transform="translate(-498 -135.082)" fill="#E9CB6B"/>
</g>
<g id="Vector">
<use xlink:href="#path5_fill" transform="translate(-498 -155)" fill="#E9CB6B"/>
</g>
</g>
</g>
<defs>
<path id="path0_fill" d="M 0 4.83607L 10.5 1.5634e-07L 10.5 11.2295L 0 4.91803L 0 4.83607Z"/>
<path id="path1_fill" d="M 3.05758e-07 0.0819672L 0.0801525 0L 10.5 17.7869L 3.05758e-07 12.9508L 3.05758e-07 0.0819672Z"/>
<path id="path2_fill" d="M 3.05758e-07 1.5634e-07L 10.5 4.83607L 10.5 4.91803L 3.05758e-07 11.2295L 3.05758e-07 1.5634e-07Z"/>
<path id="path3_fill" d="M 3.05758e-07 6.31148L 10.5 -6.2536e-07L 0.0801525 15.082L 3.05758e-07 15.082L 3.05758e-07 6.31148Z"/>
<path id="path4_fill" d="M 10.5 6.31148L 10.5 15.082L 0 -6.2536e-07L 0.0801527 -6.2536e-07L 10.5 6.31148Z"/>
<path id="path5_fill" d="M 10.5 0.0819672L 10.5 12.9508L 0 17.7869L 10.5 0L 10.5 0.0819672Z"/>
</defs>
</svg>
