<svg xmlns="http://www.w3.org/2000/svg" viewBox="0 0 172.4 283.8"><title>Asset 1</title><g id="Layer_2" data-name="Layer 2"><g id="Layer_1-2" data-name="Layer 1"><path d="M86.2,283.8,0,141.9,86.2,0l86.2,141.9ZM10.5,141.9,86.2,266.5l75.7-124.6L86.2,17.3Z"/><polygon points="115.9 175.7 68.1 175.7 68.1 148.6 110.4 148.6 110.4 140.7 68.1 140.7 68.1 114.2 115.3 114.2 115.3 106.3 101.3 106.3 101.3 89.3 92.5 89.3 92.5 106.3 82.5 106.3 82.5 89.3 73.7 89.3 73.7 106.3 59.4 106.3 59.4 183.7 73.7 183.7 73.7 200.4 82.5 200.4 82.5 183.7 92.5 183.7 92.5 200.4 101.3 200.4 101.3 183.7 115.9 183.7 115.9 175.7"/></g></g></svg>