<svg xmlns="http://www.w3.org/2000/svg" viewBox="0 0 603.13 699.61"><title>Asset 2</title><g id="Layer_2" data-name="Layer 2"><g id="Layer_1-2" data-name="Layer 1"><path d="M594.1,184.2c-28.36-19.84-58.69-41-88.36-62-.66-.49-1.31-1-2.13-1.48A40,40,0,0,0,492,114.2l-.33-.17c-79.34-19.18-160-38.85-238-57.87Q147.38,30.35,41.31,4.52c-1.8-.49-3.6-1-5.57-1.47C29.34,1.25,22-.72,14.1.26A15.11,15.11,0,0,0,8,2.56l-2,1.64A24,24,0,0,0,.49,13.05L0,14.36V21.9l.33,1.15C45.08,148.46,91,275.67,135.25,398.79c34.09,94.75,69.5,193,104.09,289.34,2.14,6.56,8.2,10.82,15.74,11.48h1.64c7,0,13.28-3.45,16.39-9L403,501.25q47.46-69.11,94.92-138.36c12.95-18.86,25.9-37.87,38.85-56.73C558,275,580,242.89,601.8,211.57l1.15-1.64v-2c.49-5.74.66-17.54-8.85-23.77M442,253.21c-30.49,15.9-61.64,32.3-93,48.53,18.19-19.51,36.55-39.18,54.75-58.69,22.79-24.59,46.56-50,69.84-74.92l.49-.49a75.76,75.76,0,0,1,7-7.71c1.8-1.8,3.77-3.6,5.57-5.73,12.13,8.36,24.43,16.88,36.23,25.24q12.79,9.1,26.07,18.2C513,216,476.88,234.85,442,253.21Zm-78.36-7.87c-23.45,25.41-47.71,51.48-71.81,77.22-46.72-56.72-94.42-114.26-140.65-169.84-21-25.24-42.13-50.65-63.12-75.9l-.16-.16c-4.76-5.41-9.35-11.32-13.94-16.89-3-3.77-6.06-7.38-9.18-11.15,19,4.92,38.2,9.51,57.05,13.94,16.56,3.93,33.77,8,50.66,12.29q142.62,34.68,285.41,69.35C426.23,178,394.43,212.23,363.61,245.34ZM281.15,564.85c1.8-17.21,3.77-34.92,5.41-52.29,1.47-13.94,2.95-28.2,4.42-41.81,2.3-21.8,4.76-44.42,6.72-66.55l.5-3.94c1.64-14.1,3.28-28.69,4.26-43.28a49.7,49.7,0,0,1,5.9-2.78,75.94,75.94,0,0,0,7.38-3.61q56.81-29.76,113.77-59.34c37.87-19.68,76.72-40,115.24-60.17-35.08,50.82-70.32,102.13-104.42,152.13C411,426,380.82,470.1,350.82,513.54c-11.8,17.38-24.1,35.08-35.74,52.13-13.11,19-26.56,38.53-39.67,58,1.64-19.67,3.61-39.5,5.74-58.85M52.62,87.31c-2.13-5.9-4.42-12-6.39-17.7C90.49,123.05,135.08,176.82,178.52,229,201,256,223.44,282.89,245.9,310.1c4.43,5.08,8.85,10.49,13.12,15.74,5.57,6.72,11.14,13.77,17.21,20.49-2,16.88-3.61,33.93-5.41,50.33-1.15,11.47-2.3,22.95-3.61,34.59v.16c-.49,7.38-1.47,14.75-2.29,22-1.15,10-3.77,32.62-3.77,32.62l-.17,1.15c-3,33.11-6.55,66.55-10,99-1.47,13.45-2.78,27.22-4.26,41-.82-2.46-1.8-4.92-2.62-7.22-2.46-6.55-4.92-13.44-7.21-20.16l-17.55-48.69Q136,319.2,52.62,87.31Z"/></g></g></svg>