<svg width="27" height="18" viewBox="0 0 27 18" fill="none" xmlns="http://www.w3.org/2000/svg">
<path d="M25.9 5.09961H4.7V16.4996H25.9V5.09961Z" stroke="#1c1c1c" stroke-width="1.1221" stroke-miterlimit="10"/>
<path d="M15.2 14.2004C16.4703 14.2004 17.5 12.6782 17.5 10.8004C17.5 8.92262 16.4703 7.40039 15.2 7.40039C13.9297 7.40039 12.9 8.92262 12.9 10.8004C12.9 12.6782 13.9297 14.2004 15.2 14.2004Z" fill="#1c1c1c"/>
<path d="M15.2 16.1C17.4644 16.1 19.3 13.7271 19.3 10.8C19.3 7.87289 17.4644 5.5 15.2 5.5C12.9356 5.5 11.1 7.87289 11.1 10.8C11.1 13.7271 12.9356 16.1 15.2 16.1Z" stroke="#1c1c1c" stroke-width="1.0756" stroke-miterlimit="10"/>
<path d="M5.1 10.2C7.91665 10.2 10.2 7.91665 10.2 5.1C10.2 2.28335 7.91665 0 5.1 0C2.28335 0 0 2.28335 0 5.1C0 7.91665 2.28335 10.2 5.1 10.2Z" fill="#1c1c1c"/>
<path d="M4.3879 7.24414H5.7879L5.7879 1.64414H4.3879L4.3879 7.24414Z" fill="#e9cb6b"/>
<path d="M4.15526 7.29522L5.1452 8.28516L8.46857 4.96179L7.47863 3.97185L4.15526 7.29522Z" fill="#e9cb6b"/>
<path d="M2.79704 3.88018L1.8071 4.87012L5.13047 8.19349L6.12041 7.20355L2.79704 3.88018Z" fill="#e9cb6b"/>
</svg>
